<svg xmlns="http://www.w3.org/2000/svg" viewBox="0 0 960 640" role="img" aria-label="SecretTravel project thumbnail">
  <rect width="960" height="640" fill="#0f172a"/>
  <rect x="64" y="64" width="832" height="512" rx="20" fill="#eaf6ff"/>
  <rect x="64" y="64" width="832" height="248" rx="20" fill="#2563eb"/>
  <path d="M64 294c110-70 210-64 300-10 120 72 206 74 324-2 74-48 144-58 208-30v324H64z" fill="#f8fafc"/>
  <circle cx="740" cy="144" r="52" fill="#fbbf24"/>
  <rect x="116" y="116" width="320" height="42" fill="#f8fafc"/>
  <rect x="116" y="180" width="240" height="18" fill="#bfdbfe"/>
  <rect x="116" y="214" width="280" height="18" fill="#bfdbfe"/>
  <rect x="116" y="368" width="206" height="110" fill="#ffffff"/>
  <rect x="356" y="348" width="206" height="130" fill="#ffffff"/>
  <rect x="596" y="378" width="206" height="100" fill="#ffffff"/>
  <path d="M168 430l58-58 54 58M406 422l54-62 54 62M646 430l52-50 52 50" stroke="#0284c7" stroke-width="18" fill="none"/>
</svg>
