<svg xmlns="http://www.w3.org/2000/svg" viewBox="0 0 960 640" role="img" aria-label="Vakalova dental clinic project thumbnail">
  <rect width="960" height="640" fill="#e8f8fb"/>
  <rect x="62" y="62" width="836" height="516" rx="20" fill="#ffffff"/>
  <rect x="110" y="116" width="312" height="48" fill="#0891b2"/>
  <rect x="110" y="198" width="260" height="18" fill="#a5ddeb"/>
  <rect x="110" y="232" width="322" height="18" fill="#d5eef4"/>
  <rect x="110" y="290" width="160" height="52" fill="#0891b2"/>
  <rect x="304" y="290" width="160" height="52" fill="#e6f6fa"/>
  <rect x="566" y="128" width="214" height="330" rx="106" fill="#cffafe"/>
  <path d="M650 236c18-30 58-30 76 0 18 32 10 90-14 144-14 32-24 48-39 48s-25-16-39-48c-24-54-32-112-14-144z" fill="#0891b2"/>
  <rect x="558" y="500" width="230" height="28" fill="#bae6fd"/>
</svg>
